<?xml version="1.0" standalone="no"?>
<!DOCTYPE svg PUBLIC "-//W3C//DTD SVG 20010904//EN"
 "http://www.w3.org/TR/2001/REC-SVG-20010904/DTD/svg10.dtd">
<svg version="1.0" xmlns="http://www.w3.org/2000/svg"
 width="316.000000pt" height="317.000000pt" viewBox="0 0 316.000000 317.000000"
 preserveAspectRatio="xMidYMid meet">
<metadata>
Created by potrace 1.14, written by Peter Selinger 2001-2017
</metadata>
<g transform="translate(0.000000,317.000000) scale(0.100000,-0.100000)"
fill="#000000" stroke="none">
<path d="M1320 3030 c-92 -4 -160 -14 -213 -29 -43 -12 -86 -24 -95 -26 -77
-16 -273 -114 -397 -198 -84 -57 -217 -181 -253 -237 -9 -14 -36 -49 -59 -78
-24 -29 -43 -59 -43 -67 0 -8 -4 -15 -9 -15 -9 0 -45 -88 -75 -185 -39 -126
-48 -343 -21 -498 14 -83 75 -263 92 -276 5 -3 20 -28 35 -56 15 -27 53 -79
85 -115 68 -75 190 -193 206 -199 6 -2 18 -12 27 -22 16 -18 64 -46 186 -109
108 -56 114 -55 54 3 -84 81 -127 136 -146 186 -9 25 -21 48 -25 51 -5 3 -18
42 -30 85 -30 115 -37 351 -15 466 20 99 44 179 55 179 5 0 16 20 26 45 9 25
23 51 30 58 7 8 25 36 39 63 44 82 167 235 266 330 185 178 382 354 395 354
12 0 144 114 144 125 1 6 15 24 31 42 73 78 54 123 -52 123 -35 0 -72 2 -83 4
-11 2 -81 0 -155 -4z"/>
<path d="M1024 2211 c16 -11 33 -27 38 -35 5 -9 15 -16 23 -16 7 0 24 -15 36
-32 13 -18 26 -35 29 -38 54 -45 130 -284 130 -407 0 -24 5 -43 10 -43 6 0 10
-30 10 -71 0 -44 -4 -68 -10 -64 -6 4 -10 -11 -10 -38 0 -82 -81 -343 -119
-384 -11 -11 -26 -33 -34 -49 -9 -16 -28 -42 -42 -59 -14 -16 -35 -44 -46 -62
-11 -18 -24 -33 -28 -33 -4 0 -14 -13 -24 -29 -30 -51 -451 -461 -473 -461 -3
0 -15 -10 -27 -23 -12 -12 -49 -44 -82 -72 -33 -27 -71 -59 -84 -72 -13 -13
-27 -23 -31 -23 -4 0 -13 -13 -20 -30 -7 -16 -16 -30 -21 -30 -22 0 -6 -38 23
-55 29 -18 51 -20 178 -20 153 1 232 11 395 52 172 43 287 93 388 169 31 24
59 44 62 44 22 0 200 161 244 220 14 19 28 37 31 40 3 3 15 25 28 50 12 25 33
60 47 78 13 18 31 56 41 85 9 29 21 54 25 57 15 10 49 180 55 278 4 57 2 134
-5 187 -13 96 -40 217 -51 225 -3 3 -27 46 -53 97 -25 51 -55 101 -66 112 -11
11 -30 39 -41 62 -19 37 -185 211 -193 203 -2 -2 -16 10 -32 26 -16 17 -33 30
-38 30 -5 0 -22 10 -37 23 -58 46 -74 57 -85 57 -6 0 -43 16 -82 35 -79 39
-104 45 -59 16z"/>
<path d="M1521 2098 c33 -34 59 -66 59 -71 0 -9 66 -81 114 -125 17 -15 46
-44 65 -66 20 -21 69 -73 109 -115 39 -42 72 -79 72 -83 0 -3 39 -47 88 -96
48 -49 112 -118 142 -152 30 -35 63 -70 74 -79 27 -23 38 -36 63 -68 12 -16
34 -42 48 -57 l25 -27 -37 -45 c-21 -24 -41 -44 -45 -44 -4 0 -8 -5 -8 -12 0
-6 -30 -41 -67 -78 -38 -37 -95 -97 -128 -135 -33 -37 -70 -77 -82 -88 -13
-11 -23 -26 -23 -33 0 -6 -11 -15 -25 -18 -14 -4 -25 -11 -25 -17 0 -6 -11
-25 -25 -43 -14 -18 -25 -38 -25 -44 0 -7 -5 -12 -12 -12 -13 0 -264 -252
-298 -300 -12 -17 -32 -42 -44 -54 -42 -44 -76 -86 -70 -86 4 0 22 11 40 25
18 14 37 25 43 25 5 0 17 10 25 23 16 22 79 62 145 92 19 9 49 27 67 40 18 14
36 25 41 25 4 0 19 9 33 20 14 11 31 20 38 20 7 0 35 16 62 35 27 19 52 35 56
35 3 0 20 11 38 25 18 14 36 25 40 25 4 0 22 10 39 23 37 26 61 40 102 63 17
10 50 32 74 51 24 18 50 33 58 33 8 0 41 18 74 40 33 22 63 40 66 40 3 0 21
11 38 25 18 13 34 22 37 20 2 -3 19 9 37 25 18 17 34 30 36 30 1 0 43 25 92
55 50 30 95 55 102 55 7 0 27 11 45 25 18 14 36 25 40 25 4 0 30 17 59 37 29
21 61 43 72 49 26 15 30 33 8 41 -10 3 -25 12 -33 18 -8 7 -27 15 -42 19 -16
3 -28 12 -28 20 0 13 -19 24 -79 47 -18 7 -48 25 -65 41 -17 15 -34 28 -38 28
-9 0 -136 78 -163 100 -34 28 -177 115 -235 143 -62 30 -85 44 -112 70 -10 10
-29 22 -41 28 -12 5 -42 23 -67 39 -25 16 -59 36 -77 45 -18 9 -37 23 -44 31
-6 8 -16 14 -22 14 -5 0 -24 10 -41 23 -17 13 -38 26 -48 30 -9 3 -53 28 -98
56 -45 28 -84 51 -86 51 -3 0 -20 11 -38 25 -18 14 -36 25 -39 25 -3 0 -27 15
-52 33 -26 17 -54 37 -64 42 -9 6 -31 20 -48 33 -55 39 -52 24 8 -40z"/>
<path d="M1790 1650 c13 -19 27 -37 30 -40 3 -3 19 -23 36 -45 16 -22 34 -44
40 -50 6 -5 20 -26 30 -45 11 -19 22 -37 25 -40 3 -3 18 -26 33 -52 15 -27 31
-48 34 -48 4 0 23 -24 42 -53 19 -28 40 -55 46 -59 6 -4 17 -21 24 -37 12 -30
2 -56 -41 -104 -9 -9 -22 -30 -30 -45 -8 -15 -21 -33 -30 -39 -10 -7 -30 -33
-45 -58 -16 -25 -32 -45 -36 -45 -5 0 -8 -6 -8 -14 0 -13 -82 -132 -118 -171
-10 -11 -30 -36 -43 -55 -28 -42 133 119 176 175 31 40 106 124 137 154 10 9
39 38 65 65 26 27 60 62 76 77 15 15 27 31 27 36 0 14 -106 123 -119 123 -6 0
-11 4 -11 10 0 5 -15 25 -32 43 -72 74 -158 171 -158 176 0 8 -40 50 -115 121
-49 46 -55 49 -35 20z"/>
</g>
</svg>
